<svg xmlns="http://www.w3.org/2000/svg" width="169.22" height="35" viewBox="0 0 169.22 35"><rect class="svg__rect" x="0" y="0" width="67.18" height="35" fill="#88C7D4"/><rect class="svg__rect" x="65.18" y="0" width="104.03999999999999" height="35" fill="#E46C17"/><path class="svg__text" d="M15.70 22L14.22 22L14.22 13.47L15.70 13.47L19.51 19.54L19.51 13.47L20.98 13.47L20.98 22L19.50 22L15.70 15.95L15.70 22ZM25.46 18.00L25.46 18.00L25.46 17.52Q25.46 16.28 25.90 15.32Q26.34 14.37 27.15 13.86Q27.95 13.35 28.99 13.35Q30.04 13.35 30.84 13.85Q31.65 14.35 32.09 15.29Q32.53 16.23 32.53 17.48L32.53 17.48L32.53 17.96Q32.53 19.21 32.10 20.16Q31.67 21.10 30.86 21.61Q30.06 22.12 29.01 22.12L29.01 22.12Q27.97 22.12 27.16 21.61Q26.35 21.10 25.90 20.17Q25.46 19.23 25.46 18.00ZM26.94 17.46L26.94 17.96Q26.94 19.36 27.49 20.13Q28.03 20.90 29.01 20.90L29.01 20.90Q29.99 20.90 30.52 20.15Q31.05 19.40 31.05 17.96L31.05 17.96L31.05 17.51Q31.05 16.09 30.52 15.34Q29.98 14.58 28.99 14.58L28.99 14.58Q28.03 14.58 27.49 15.33Q26.95 16.09 26.94 17.46L26.94 17.46ZM39.45 22L37.00 22L37.00 13.47L39.52 13.47Q40.65 13.47 41.52 13.97Q42.40 14.48 42.88 15.40Q43.36 16.33 43.36 17.52L43.36 17.52L43.36 17.95Q43.36 19.16 42.88 20.08Q42.39 21.00 41.50 21.50Q40.61 22 39.45 22L39.45 22ZM38.48 14.66L38.48 20.82L39.45 20.82Q40.61 20.82 41.24 20.09Q41.86 19.36 41.87 17.99L41.87 17.99L41.87 17.52Q41.87 16.13 41.27 15.40Q40.67 14.66 39.52 14.66L39.52 14.66L38.48 14.66ZM53.40 22L47.83 22L47.83 13.47L53.36 13.47L53.36 14.66L49.31 14.66L49.31 17.02L52.81 17.02L52.81 18.19L49.31 18.19L49.31 20.82L53.40 20.82L53.40 22Z" fill="#FFFFFF"/><path class="svg__text" d="M86.11 22L79.37 22L79.37 13.60L85.96 13.60L85.96 15.44L81.72 15.44L81.72 16.85L85.46 16.85L85.46 18.63L81.72 18.63L81.72 20.17L86.11 20.17L86.11 22ZM92.77 22L90.06 22L93.11 17.75L90.18 13.60L92.86 13.60L94.54 16.02L96.20 13.60L98.77 13.60L95.84 17.66L98.96 22L96.23 22L94.49 19.40L92.77 22ZM105.62 22L103.24 22L103.24 13.60L107.09 13.60Q108.23 13.60 109.07 13.98Q109.91 14.35 110.36 15.06Q110.82 15.76 110.82 16.71L110.82 16.71Q110.82 17.66 110.36 18.35Q109.91 19.05 109.07 19.42Q108.23 19.80 107.09 19.80L107.09 19.80L105.62 19.80L105.62 22ZM105.62 15.47L105.62 17.93L106.94 17.93Q107.67 17.93 108.05 17.61Q108.42 17.29 108.42 16.71L108.42 16.71Q108.42 16.12 108.05 15.80Q107.67 15.47 106.94 15.47L106.94 15.47L105.62 15.47ZM117.95 22L115.57 22L115.57 13.60L119.42 13.60Q120.56 13.60 121.40 13.98Q122.24 14.35 122.69 15.06Q123.15 15.76 123.15 16.71L123.15 16.71Q123.15 17.62 122.72 18.30Q122.29 18.98 121.50 19.36L121.50 19.36L123.31 22L120.77 22L119.25 19.77L117.95 19.77L117.95 22ZM117.95 15.47L117.95 17.93L119.27 17.93Q120.00 17.93 120.37 17.61Q120.75 17.29 120.75 16.71L120.75 16.71Q120.75 16.12 120.37 15.79Q120.00 15.47 119.27 15.47L119.27 15.47L117.95 15.47ZM134.68 22L127.94 22L127.94 13.60L134.53 13.60L134.53 15.44L130.29 15.44L130.29 16.85L134.02 16.85L134.02 18.63L130.29 18.63L130.29 20.17L134.68 20.17L134.68 22ZM138.90 21.24L138.90 21.24L139.68 19.49Q140.24 19.86 140.99 20.09Q141.73 20.32 142.45 20.32L142.45 20.32Q143.82 20.32 143.82 19.64L143.82 19.64Q143.82 19.28 143.43 19.11Q143.04 18.93 142.17 18.74L142.17 18.74Q141.23 18.53 140.59 18.30Q139.95 18.06 139.50 17.55Q139.05 17.03 139.05 16.16L139.05 16.16Q139.05 15.39 139.46 14.77Q139.88 14.15 140.72 13.79Q141.55 13.43 142.76 13.43L142.76 13.43Q143.59 13.43 144.39 13.62Q145.20 13.80 145.81 14.17L145.81 14.17L145.08 15.93Q143.88 15.28 142.75 15.28L142.75 15.28Q142.04 15.28 141.72 15.49Q141.40 15.70 141.40 16.04L141.40 16.04Q141.40 16.37 141.78 16.54Q142.16 16.71 143.01 16.89L143.01 16.89Q143.97 17.10 144.60 17.33Q145.23 17.56 145.70 18.07Q146.16 18.58 146.16 19.46L146.16 19.46Q146.16 20.21 145.74 20.83Q145.32 21.44 144.48 21.80Q143.64 22.17 142.44 22.17L142.44 22.17Q141.42 22.17 140.46 21.92Q139.50 21.67 138.90 21.24ZM150.15 21.24L150.15 21.24L150.93 19.49Q151.49 19.86 152.24 20.09Q152.98 20.32 153.70 20.32L153.70 20.32Q155.07 20.32 155.07 19.64L155.07 19.64Q155.07 19.28 154.68 19.11Q154.29 18.93 153.42 18.74L153.42 18.74Q152.48 18.53 151.84 18.30Q151.20 18.06 150.75 17.55Q150.30 17.03 150.30 16.16L150.30 16.16Q150.30 15.39 150.71 14.77Q151.13 14.15 151.97 13.79Q152.80 13.43 154.01 13.43L154.01 13.43Q154.84 13.43 155.64 13.62Q156.45 13.80 157.06 14.17L157.06 14.17L156.33 15.93Q155.13 15.28 154.00 15.28L154.00 15.28Q153.29 15.28 152.97 15.49Q152.65 15.70 152.65 16.04L152.65 16.04Q152.65 16.37 153.03 16.54Q153.41 16.71 154.26 16.89L154.26 16.89Q155.22 17.10 155.85 17.33Q156.48 17.56 156.95 18.07Q157.41 18.58 157.41 19.46L157.41 19.46Q157.41 20.21 156.99 20.83Q156.57 21.44 155.73 21.80Q154.89 22.17 153.69 22.17L153.69 22.17Q152.67 22.17 151.71 21.92Q150.75 21.67 150.15 21.24Z" fill="#FFFFFF" x="78.18"/></svg>